<svg width="24" height="24" viewBox="0 0 24 24" fill="none" xmlns="http://www.w3.org/2000/svg">
<g clip-path="url(#clip0_18_4691)">
<path d="M22 6C22 5.46957 21.7893 4.96086 21.4142 4.58578C21.0391 4.21071 20.5304 4 20 4H4C3.46957 4 2.96089 4.21071 2.58582 4.58578C2.21074 4.96086 2 5.46957 2 6V18C2 18.5304 2.21074 19.0391 2.58582 19.4142C2.96089 19.7893 3.46957 20 4 20H20C20.5304 20 21.0391 19.7893 21.4142 19.4142C21.7893 19.0391 22 18.5304 22 18V6ZM20 6L12 11L4 6H20ZM20 18H4V8L12 13L20 8V18Z" fill="#303030"/>
</g>
<defs>
<clipPath id="clip0_18_4691">
<rect width="24" height="24" fill="white"/>
</clipPath>
</defs>
</svg>
